<svg xmlns="http://www.w3.org/2000/svg" width="1000" height="1140" viewBox="0 0 1000 1140"><defs><marker id="a" viewBox="0 0 10 10" refX="9" refY="5" markerWidth="6.5" markerHeight="6.5" orient="auto-start-reverse"><path d="M0,1 L9,5 L0,9" fill="none" stroke="#55584f" stroke-width="1.8"/></marker><marker id="af" viewBox="0 0 10 10" refX="9" refY="5" markerWidth="6.5" markerHeight="6.5" orient="auto-start-reverse"><path d="M0,1 L9,5 L0,9" fill="none" stroke="#5b7181" stroke-width="1.8"/></marker></defs><rect width="1000" height="1140" fill="#fcfcfa"/><text x="40.0" y="46.0" font-family="IBM Plex Mono, serif" font-size="13" fill="#2e4551" text-anchor="start" letter-spacing="0.12em">FIGURA 3</text><text x="40.0" y="80.0" font-family="Spectral SemiBold, serif" font-size="25" fill="#191a18" text-anchor="start">Dependencias entre etapas</text><text x="40.0" y="106.0" font-family="IBM Plex Sans Condensed, serif" font-size="16" fill="#55584f" text-anchor="start">Qué tiene que estar resuelto antes de que cada etapa pueda correr.</text><line x1="40.0" y1="126.0" x2="960.0" y2="126.0" stroke="#191a18" stroke-width="1.8"/><path d="M500,218.0 L500,246.0" fill="none" stroke="#55584f" stroke-width="1.4" marker-end="url(#a)"/><path d="M500,326.0 L500,358.0" fill="none" stroke="#55584f" stroke-width="1.4" marker-end="url(#a)"/><path d="M135,218.0 C135,400 135,400 396.0,400" fill="none" stroke="#55584f" stroke-width="1.4" marker-end="url(#a)"/><path d="M135,326.0 C135,400 135,400 396.0,400" fill="none" stroke="#55584f" stroke-width="1.4" marker-end="url(#a)"/><path d="M600.0,400 L761.0,400" fill="none" stroke="#5b7181" stroke-width="1.4" stroke-dasharray="5 4" marker-end="url(#af)"/><path d="M500,438.0 L500,470.0" fill="none" stroke="#55584f" stroke-width="1.4" marker-end="url(#a)"/><path d="M400.0,512 L239.0,512" fill="none" stroke="#5b7181" stroke-width="1.4" stroke-dasharray="5 4" marker-end="url(#af)"/><path d="M600.0,512 L761.0,512" fill="none" stroke="#5b7181" stroke-width="1.4" stroke-dasharray="5 4" marker-end="url(#af)"/><path d="M865,550.0 L865,582.0" fill="none" stroke="#5b7181" stroke-width="1.4" stroke-dasharray="5 4" marker-end="url(#af)"/><path d="M500,550.0 L500,582.0" fill="none" stroke="#55584f" stroke-width="1.4" marker-end="url(#a)"/><path d="M500,662.0 L500,694.0" fill="none" stroke="#55584f" stroke-width="1.4" marker-end="url(#a)"/><path d="M500,774.0 L500,806.0" fill="none" stroke="#5b7181" stroke-width="1.4" stroke-dasharray="5 4" marker-end="url(#af)"/><path d="M500,774.0 C500,848 500,848 761.0,848" fill="none" stroke="#5b7181" stroke-width="1.4" stroke-dasharray="5 4" marker-end="url(#af)"/><rect x="40.0" y="147.0" width="190.0" height="66.0" fill="#fcfcfa" stroke="#c9ccc5" stroke-width="1.3"/><line x1="40.0" y1="147.0" x2="230.0" y2="147.0" stroke="#2e4551" stroke-width="3"/><text x="135.0" y="179.0" font-family="IBM Plex Mono, serif" font-size="14.5" fill="#191a18" text-anchor="middle">summarizer</text><text x="135.0" y="200.0" font-family="IBM Plex Sans Condensed, serif" font-size="14" fill="#7e8179" text-anchor="middle">discurso</text><rect x="405.0" y="147.0" width="190.0" height="66.0" fill="#fcfcfa" stroke="#c9ccc5" stroke-width="1.3"/><line x1="405.0" y1="147.0" x2="595.0" y2="147.0" stroke="#2e4551" stroke-width="3"/><text x="500.0" y="179.0" font-family="IBM Plex Mono, serif" font-size="14.5" fill="#191a18" text-anchor="middle">metadata</text><text x="500.0" y="200.0" font-family="IBM Plex Sans Condensed, serif" font-size="14" fill="#7e8179" text-anchor="middle">discurso</text><rect x="405.0" y="255.0" width="190.0" height="66.0" fill="#fcfcfa" stroke="#c9ccc5" stroke-width="1.3"/><line x1="405.0" y1="255.0" x2="595.0" y2="255.0" stroke="#2e4551" stroke-width="3"/><text x="500.0" y="287.0" font-family="IBM Plex Mono, serif" font-size="14.5" fill="#191a18" text-anchor="middle">enunciation</text><text x="500.0" y="308.0" font-family="IBM Plex Sans Condensed, serif" font-size="14" fill="#7e8179" text-anchor="middle">discurso</text><rect x="40.0" y="255.0" width="190.0" height="66.0" fill="#fcfcfa" stroke="#c9ccc5" stroke-width="1.3"/><line x1="40.0" y1="255.0" x2="230.0" y2="255.0" stroke="#2e4551" stroke-width="3"/><text x="135.0" y="287.0" font-family="IBM Plex Mono, serif" font-size="14.5" fill="#191a18" text-anchor="middle">actors</text><text x="135.0" y="308.0" font-family="IBM Plex Sans Condensed, serif" font-size="14" fill="#7e8179" text-anchor="middle">unidad</text><rect x="405.0" y="367.0" width="190.0" height="66.0" fill="#fcfcfa" stroke="#c9ccc5" stroke-width="1.3"/><line x1="405.0" y1="367.0" x2="595.0" y2="367.0" stroke="#2e4551" stroke-width="3"/><text x="500.0" y="399.0" font-family="IBM Plex Mono, serif" font-size="14.5" fill="#191a18" text-anchor="middle">emotions</text><text x="500.0" y="420.0" font-family="IBM Plex Sans Condensed, serif" font-size="14" fill="#7e8179" text-anchor="middle">unidad</text><rect x="770.0" y="367.0" width="190.0" height="66.0" fill="#fcfcfa" stroke="#c9ccc5" stroke-width="1.3" stroke-dasharray="4 3"/><text x="865.0" y="399.0" font-family="IBM Plex Mono, serif" font-size="14.5" fill="#191a18" text-anchor="middle">emotions_pass2</text><text x="865.0" y="420.0" font-family="IBM Plex Sans Condensed, serif" font-size="14" fill="#7e8179" text-anchor="middle">unidad</text><rect x="405.0" y="479.0" width="190.0" height="66.0" fill="#fcfcfa" stroke="#c9ccc5" stroke-width="1.3"/><line x1="405.0" y1="479.0" x2="595.0" y2="479.0" stroke="#2e4551" stroke-width="3"/><text x="500.0" y="511.0" font-family="IBM Plex Mono, serif" font-size="14.5" fill="#191a18" text-anchor="middle">explode_emotions</text><text x="500.0" y="532.0" font-family="IBM Plex Sans Condensed, serif" font-size="14" fill="#7e8179" text-anchor="middle">emoción</text><rect x="40.0" y="479.0" width="190.0" height="66.0" fill="#fcfcfa" stroke="#c9ccc5" stroke-width="1.3" stroke-dasharray="4 3"/><text x="135.0" y="511.0" font-family="IBM Plex Mono, serif" font-size="14.5" fill="#191a18" text-anchor="middle">semas</text><text x="135.0" y="532.0" font-family="IBM Plex Sans Condensed, serif" font-size="14" fill="#7e8179" text-anchor="middle">referente</text><rect x="770.0" y="479.0" width="190.0" height="66.0" fill="#fcfcfa" stroke="#c9ccc5" stroke-width="1.3" stroke-dasharray="4 3"/><text x="865.0" y="511.0" font-family="IBM Plex Mono, serif" font-size="14.5" fill="#191a18" text-anchor="middle">deixis</text><text x="865.0" y="532.0" font-family="IBM Plex Sans Condensed, serif" font-size="14" fill="#7e8179" text-anchor="middle">marca</text><rect x="770.0" y="591.0" width="190.0" height="66.0" fill="#fcfcfa" stroke="#c9ccc5" stroke-width="1.3" stroke-dasharray="4 3"/><text x="865.0" y="623.0" font-family="IBM Plex Mono, serif" font-size="14.5" fill="#191a18" text-anchor="middle">modalidad</text><text x="865.0" y="644.0" font-family="IBM Plex Sans Condensed, serif" font-size="14" fill="#7e8179" text-anchor="middle">vínculo</text><rect x="405.0" y="591.0" width="190.0" height="66.0" fill="#fcfcfa" stroke="#c9ccc5" stroke-width="1.3"/><line x1="405.0" y1="591.0" x2="595.0" y2="591.0" stroke="#2e4551" stroke-width="3"/><text x="500.0" y="623.0" font-family="IBM Plex Mono, serif" font-size="14.5" fill="#191a18" text-anchor="middle">normalize_emotions</text><text x="500.0" y="644.0" font-family="IBM Plex Sans Condensed, serif" font-size="14" fill="#7e8179" text-anchor="middle">emoción</text><rect x="405.0" y="703.0" width="190.0" height="66.0" fill="#fcfcfa" stroke="#c9ccc5" stroke-width="1.3"/><line x1="405.0" y1="703.0" x2="595.0" y2="703.0" stroke="#2e4551" stroke-width="3"/><text x="500.0" y="735.0" font-family="IBM Plex Mono, serif" font-size="14.5" fill="#191a18" text-anchor="middle">characterizer</text><text x="500.0" y="756.0" font-family="IBM Plex Sans Condensed, serif" font-size="14" fill="#7e8179" text-anchor="middle">emoción</text><rect x="405.0" y="815.0" width="190.0" height="66.0" fill="#fcfcfa" stroke="#c9ccc5" stroke-width="1.3" stroke-dasharray="4 3"/><text x="500.0" y="847.0" font-family="IBM Plex Mono, serif" font-size="14.5" fill="#191a18" text-anchor="middle">actants</text><text x="500.0" y="868.0" font-family="IBM Plex Sans Condensed, serif" font-size="14" fill="#7e8179" text-anchor="middle">emoción</text><rect x="770.0" y="815.0" width="190.0" height="66.0" fill="#fcfcfa" stroke="#c9ccc5" stroke-width="1.3" stroke-dasharray="4 3"/><text x="865.0" y="847.0" font-family="IBM Plex Mono, serif" font-size="14.5" fill="#191a18" text-anchor="middle">judge</text><text x="865.0" y="868.0" font-family="IBM Plex Sans Condensed, serif" font-size="14" fill="#7e8179" text-anchor="middle">emoción</text><line x1="40.0" y1="938.0" x2="960.0" y2="938.0" stroke="#c9ccc5" stroke-width="1.3"/><rect x="40.0" y="955.0" width="36.0" height="22.0" fill="#fcfcfa" stroke="#c9ccc5" stroke-width="1.3"/><line x1="40.0" y1="955.0" x2="76.0" y2="955.0" stroke="#2e4551" stroke-width="3"/><text x="88.0" y="972.0" font-family="IBM Plex Sans Condensed, serif" font-size="15.5" fill="#55584f" text-anchor="start">activa por defecto</text><rect x="300.0" y="955.0" width="36.0" height="22.0" fill="#fcfcfa" stroke="#c9ccc5" stroke-width="1.3" stroke-dasharray="4 3"/><text x="348.0" y="972.0" font-family="IBM Plex Sans Condensed, serif" font-size="15.5" fill="#55584f" text-anchor="start">opcional, se activa al pedirla</text><text x="40.0" y="1012.0" font-family="IBM Plex Sans Condensed, serif" font-size="15" fill="#7e8179" text-anchor="start">El nivel indica sobre qué trabaja cada etapa: el discurso completo, la unidad de lectura,</text><text x="40.0" y="1034.0" font-family="IBM Plex Sans Condensed, serif" font-size="15" fill="#7e8179" text-anchor="start">cada emoción ya detectada, o cada marca y referente del corpus.</text></svg>